# xmcd CD database file
#
# Track frame offsets:
#	150
#	16980
#	31445
#	50060
#	68122
#	80851
#	95661
#	116825
#	135005
#	149153
#	168048
#	184457
#
# Disc length: 2738 seconds
#
# Revision: 0
# Processed by: cddbd v1.5.1PL0 Copyright (c) Steve Scherf et al.
# Submitted via: CDex 1.51
#
DISCID=ae0ab00c
DTITLE=Enya - Amarantine
DYEAR=2005
DGENRE=New Age
TTITLE0=Less Than A Pearl
TTITLE1=Amarantine
TTITLE2=It's In The Rain
TTITLE3=If I Could Be Where You Are
TTITLE4=The River Sings
TTITLE5=Long Long Yourney
TTITLE6=Sumiregusa
TTITLE7=Somebody Said Goodbye
TTITLE8=A Moment Lost
TTITLE9=Drifting
TTITLE10=Amid The Falling Snow
TTITLE11=Water Shows The Hidden Heart
EXTD=YEAR: 2005
EXTT0=
EXTT1=
EXTT2=
EXTT3=
EXTT4=
EXTT5=
EXTT6=
EXTT7=
EXTT8=
EXTT9=
EXTT10=
EXTT11=
PLAYORDER=
